<mxfile host="drawio-plugin" modified="2023-05-17T12:08:20.744Z" agent="5.0 (Windows NT 6.2; Win64; x64) AppleWebKit/537.36 (KHTML, like Gecko) Chrome/104.0.5112.102 Safari/537.36" etag="2QCY7eG_A1YdUJSFeCD9" version="20.5.3" type="embed"><diagram id="R2lEEEUBdFMjLlhIrx00" name="Page-1"><mxGraphModel dx="1377" dy="1103" grid="1" gridSize="10" guides="1" tooltips="1" connect="1" arrows="1" fold="1" page="1" pageScale="1" pageWidth="850" pageHeight="1100" math="0" shadow="0" extFonts="Permanent Marker^https://fonts.googleapis.com/css?family=Permanent+Marker"><root><mxCell id="0"/><mxCell id="1" parent="0"/><mxCell id="3N9pXRzrCpbUJ6rccx5e-1" value="Organization" style="text;strokeColor=none;fillColor=none;html=1;fontSize=18;fontStyle=1;verticalAlign=middle;align=center;" parent="1" vertex="1"><mxGeometry x="130" y="80" width="90" height="40" as="geometry"/></mxCell><mxCell id="3N9pXRzrCpbUJ6rccx5e-2" value="Book" style="text;strokeColor=none;fillColor=none;html=1;fontSize=18;fontStyle=1;verticalAlign=middle;align=center;" parent="1" vertex="1"><mxGeometry x="100" y="200" width="80" height="40" as="geometry"/></mxCell><mxCell id="3N9pXRzrCpbUJ6rccx5e-3" value="Author" style="text;strokeColor=none;fillColor=none;html=1;fontSize=18;fontStyle=1;verticalAlign=middle;align=center;" parent="1" vertex="1"><mxGeometry x="90" y="320" width="120" height="40" as="geometry"/></mxCell><mxCell id="3N9pXRzrCpbUJ6rccx5e-7" value="Person" style="text;strokeColor=none;fillColor=none;html=1;fontSize=18;fontStyle=1;verticalAlign=middle;align=center;" parent="1" vertex="1"><mxGeometry x="100" y="1160" width="100" height="40" as="geometry"/></mxCell><mxCell id="3N9pXRzrCpbUJ6rccx5e-9" value="Reservation" style="text;strokeColor=none;fillColor=none;html=1;fontSize=18;fontStyle=1;verticalAlign=middle;align=center;" parent="1" vertex="1"><mxGeometry x="120" y="560" width="100" height="40" as="geometry"/></mxCell><mxCell id="3N9pXRzrCpbUJ6rccx5e-10" value="Loan" style="text;strokeColor=none;fillColor=none;html=1;fontSize=18;fontStyle=1;verticalAlign=middle;align=center;" parent="1" vertex="1"><mxGeometry x="90" y="920" width="100" height="40" as="geometry"/></mxCell><mxCell id="3N9pXRzrCpbUJ6rccx5e-11" value="Fine" style="text;strokeColor=none;fillColor=none;html=1;fontSize=18;fontStyle=1;verticalAlign=middle;align=center;" parent="1" vertex="1"><mxGeometry x="90" y="1040" width="100" height="40" as="geometry"/></mxCell><mxCell id="3N9pXRzrCpbUJ6rccx5e-12" value="Genre" style="text;strokeColor=none;fillColor=none;html=1;fontSize=18;fontStyle=1;verticalAlign=middle;align=center;" parent="1" vertex="1"><mxGeometry x="90" y="680" width="110" height="40" as="geometry"/></mxCell><mxCell id="3N9pXRzrCpbUJ6rccx5e-167" value="Name" style="whiteSpace=wrap;html=1;align=center;strokeColor=default;fontSize=18;fillColor=none;" parent="1" vertex="1"><mxGeometry x="120" y="120" width="100" height="40" as="geometry"/></mxCell><mxCell id="3N9pXRzrCpbUJ6rccx5e-168" value="Title" style="whiteSpace=wrap;html=1;align=center;strokeColor=default;fontSize=18;fillColor=none;" parent="1" vertex="1"><mxGeometry x="120" y="240" width="100" height="40" as="geometry"/></mxCell><mxCell id="3N9pXRzrCpbUJ6rccx5e-173" value="First_Name" style="whiteSpace=wrap;html=1;align=center;strokeColor=default;fontSize=18;fillColor=none;" parent="1" vertex="1"><mxGeometry x="120" y="1200" width="120" height="40" as="geometry"/></mxCell><mxCell id="3N9pXRzrCpbUJ6rccx5e-175" value="Reservation_ID" style="whiteSpace=wrap;html=1;align=center;strokeColor=default;fontSize=18;fillColor=none;fontStyle=5" parent="1" vertex="1"><mxGeometry x="120" y="600" width="140" height="40" as="geometry"/></mxCell><mxCell id="3N9pXRzrCpbUJ6rccx5e-176" value="Loan_ID" style="whiteSpace=wrap;html=1;align=center;strokeColor=default;fontSize=18;fillColor=none;fontStyle=5" parent="1" vertex="1"><mxGeometry x="120" y="960" width="100" height="40" as="geometry"/></mxCell><mxCell id="3N9pXRzrCpbUJ6rccx5e-177" value="Fine_ID" style="whiteSpace=wrap;html=1;align=center;strokeColor=default;fontSize=18;fillColor=none;fontStyle=5" parent="1" vertex="1"><mxGeometry x="120" y="1080" width="100" height="40" as="geometry"/></mxCell><mxCell id="3N9pXRzrCpbUJ6rccx5e-178" value="Name" style="whiteSpace=wrap;html=1;align=center;strokeColor=default;fontSize=18;fillColor=none;" parent="1" vertex="1"><mxGeometry x="120" y="720" width="100" height="40" as="geometry"/></mxCell><mxCell id="3N9pXRzrCpbUJ6rccx5e-179" value="Last_Name" style="whiteSpace=wrap;html=1;align=center;strokeColor=default;fontSize=18;fillColor=none;" parent="1" vertex="1"><mxGeometry x="240" y="1200" width="120" height="40" as="geometry"/></mxCell><mxCell id="3N9pXRzrCpbUJ6rccx5e-180" value="Phone" style="whiteSpace=wrap;html=1;align=center;strokeColor=default;fontSize=18;fillColor=none;" parent="1" vertex="1"><mxGeometry x="360" y="1200" width="120" height="40" as="geometry"/></mxCell><mxCell id="3N9pXRzrCpbUJ6rccx5e-181" value="&lt;b&gt;Person_ID&lt;/b&gt;" style="whiteSpace=wrap;html=1;align=center;strokeColor=default;fontSize=18;fillColor=none;fontStyle=4" parent="1" vertex="1"><mxGeometry x="480" y="1200" width="120" height="40" as="geometry"/></mxCell><mxCell id="3N9pXRzrCpbUJ6rccx5e-182" value="EMail" style="whiteSpace=wrap;html=1;align=center;strokeColor=default;fontSize=18;fillColor=none;" parent="1" vertex="1"><mxGeometry x="600" y="1200" width="120" height="40" as="geometry"/></mxCell><mxCell id="3N9pXRzrCpbUJ6rccx5e-183" value="City" style="whiteSpace=wrap;html=1;align=center;strokeColor=default;fontSize=18;fillColor=none;" parent="1" vertex="1"><mxGeometry x="720" y="1200" width="120" height="40" as="geometry"/></mxCell><mxCell id="3N9pXRzrCpbUJ6rccx5e-184" value="Number" style="whiteSpace=wrap;html=1;align=center;strokeColor=default;fontSize=18;fillColor=none;" parent="1" vertex="1"><mxGeometry x="840" y="1200" width="120" height="40" as="geometry"/></mxCell><mxCell id="3N9pXRzrCpbUJ6rccx5e-185" value="Street" style="whiteSpace=wrap;html=1;align=center;strokeColor=default;fontSize=18;fillColor=none;" parent="1" vertex="1"><mxGeometry x="960" y="1200" width="120" height="40" as="geometry"/></mxCell><mxCell id="3N9pXRzrCpbUJ6rccx5e-188" value="Street" style="whiteSpace=wrap;html=1;align=center;strokeColor=default;fontSize=18;fillColor=none;" parent="1" vertex="1"><mxGeometry x="220" y="120" width="100" height="40" as="geometry"/></mxCell><mxCell id="3N9pXRzrCpbUJ6rccx5e-189" value="Number" style="whiteSpace=wrap;html=1;align=center;strokeColor=default;fontSize=18;fillColor=none;" parent="1" vertex="1"><mxGeometry x="320" y="120" width="100" height="40" as="geometry"/></mxCell><mxCell id="3N9pXRzrCpbUJ6rccx5e-190" value="City" style="whiteSpace=wrap;html=1;align=center;strokeColor=default;fontSize=18;fillColor=none;" parent="1" vertex="1"><mxGeometry x="420" y="120" width="100" height="40" as="geometry"/></mxCell><mxCell id="3N9pXRzrCpbUJ6rccx5e-191" value="&lt;b&gt;Organization_ID&lt;/b&gt;" style="whiteSpace=wrap;html=1;align=center;strokeColor=default;fontSize=18;fillColor=none;" parent="1" vertex="1"><mxGeometry x="520" y="120" width="170" height="40" as="geometry"/></mxCell><mxCell id="3N9pXRzrCpbUJ6rccx5e-192" value="Branch_ID" style="whiteSpace=wrap;html=1;align=center;strokeColor=default;fontSize=18;fillColor=none;" parent="1" vertex="1"><mxGeometry x="690" y="120" width="110" height="40" as="geometry"/></mxCell><mxCell id="3N9pXRzrCpbUJ6rccx5e-193" value="Publisher_ID" style="whiteSpace=wrap;html=1;align=center;strokeColor=default;fontSize=18;fillColor=none;" parent="1" vertex="1"><mxGeometry x="800" y="120" width="130" height="40" as="geometry"/></mxCell><mxCell id="3N9pXRzrCpbUJ6rccx5e-194" value="Book_ID" style="whiteSpace=wrap;html=1;align=center;strokeColor=default;fontSize=18;fillColor=none;fontStyle=1" parent="1" vertex="1"><mxGeometry x="220" y="240" width="100" height="40" as="geometry"/></mxCell><mxCell id="3N9pXRzrCpbUJ6rccx5e-195" value="ISBN" style="whiteSpace=wrap;html=1;align=center;strokeColor=default;fontSize=18;fillColor=none;" parent="1" vertex="1"><mxGeometry x="320" y="240" width="100" height="40" as="geometry"/></mxCell><mxCell id="3N9pXRzrCpbUJ6rccx5e-197" value="First_Name" style="whiteSpace=wrap;html=1;align=center;strokeColor=default;fontSize=18;fillColor=none;" parent="1" vertex="1"><mxGeometry x="120" y="360" width="120" height="40" as="geometry"/></mxCell><mxCell id="3N9pXRzrCpbUJ6rccx5e-198" value="Last_Name" style="whiteSpace=wrap;html=1;align=center;strokeColor=default;fontSize=18;fillColor=none;" parent="1" vertex="1"><mxGeometry x="240" y="360" width="120" height="40" as="geometry"/></mxCell><mxCell id="3N9pXRzrCpbUJ6rccx5e-199" value="&lt;b&gt;Author_ID&lt;/b&gt;" style="whiteSpace=wrap;html=1;align=center;strokeColor=default;fontSize=18;fillColor=none;" parent="1" vertex="1"><mxGeometry x="360" y="360" width="120" height="40" as="geometry"/></mxCell><mxCell id="3N9pXRzrCpbUJ6rccx5e-200" value="Writes" style="text;strokeColor=none;fillColor=none;html=1;fontSize=18;fontStyle=1;verticalAlign=middle;align=center;" parent="1" vertex="1"><mxGeometry x="90" y="440" width="120" height="40" as="geometry"/></mxCell><mxCell id="3N9pXRzrCpbUJ6rccx5e-205" style="edgeStyle=orthogonalEdgeStyle;rounded=0;orthogonalLoop=1;jettySize=auto;html=1;entryX=0.5;entryY=1;entryDx=0;entryDy=0;fontSize=18;" parent="1" target="3N9pXRzrCpbUJ6rccx5e-199" edge="1"><mxGeometry relative="1" as="geometry"><mxPoint x="120" y="500.0344827586207" as="sourcePoint"/><Array as="points"><mxPoint x="100" y="500"/><mxPoint x="100" y="430"/><mxPoint x="420" y="430"/></Array></mxGeometry></mxCell><mxCell id="3N9pXRzrCpbUJ6rccx5e-204" value="" style="edgeStyle=segmentEdgeStyle;endArrow=classic;html=1;rounded=0;fontSize=18;exitX=0.5;exitY=0;exitDx=0;exitDy=0;entryX=0.5;entryY=1;entryDx=0;entryDy=0;" parent="1" source="3N9pXRzrCpbUJ6rccx5e-206" target="3N9pXRzrCpbUJ6rccx5e-194" edge="1"><mxGeometry width="50" height="50" relative="1" as="geometry"><mxPoint x="280.0000000000002" y="480" as="sourcePoint"/><mxPoint x="730" y="330" as="targetPoint"/><Array as="points"><mxPoint x="290" y="450"/><mxPoint x="510" y="450"/><mxPoint x="510" y="310"/><mxPoint x="270" y="310"/></Array></mxGeometry></mxCell><mxCell id="3N9pXRzrCpbUJ6rccx5e-206" value="Book_ID" style="whiteSpace=wrap;html=1;align=center;strokeColor=default;fontSize=18;fillColor=none;fontStyle=5" parent="1" vertex="1"><mxGeometry x="240" y="480" width="100" height="40" as="geometry"/></mxCell><mxCell id="3N9pXRzrCpbUJ6rccx5e-207" value="&lt;b&gt;Author_ID&lt;/b&gt;" style="whiteSpace=wrap;html=1;align=center;strokeColor=default;fontSize=18;fillColor=none;fontStyle=4" parent="1" vertex="1"><mxGeometry x="120" y="480" width="120" height="40" as="geometry"/></mxCell><mxCell id="3N9pXRzrCpbUJ6rccx5e-208" value="&lt;b&gt;Organization_ID&lt;/b&gt;" style="whiteSpace=wrap;html=1;align=center;strokeColor=default;fontSize=18;fillColor=none;fontStyle=4" parent="1" vertex="1"><mxGeometry x="520" y="120" width="170" height="40" as="geometry"/></mxCell><mxCell id="3N9pXRzrCpbUJ6rccx5e-209" value="Book_ID" style="whiteSpace=wrap;html=1;align=center;strokeColor=default;fontSize=18;fillColor=none;fontStyle=5" parent="1" vertex="1"><mxGeometry x="220" y="240" width="100" height="40" as="geometry"/></mxCell><mxCell id="3N9pXRzrCpbUJ6rccx5e-210" value="&lt;b&gt;Author_ID&lt;/b&gt;" style="whiteSpace=wrap;html=1;align=center;strokeColor=default;fontSize=18;fillColor=none;fontStyle=4" parent="1" vertex="1"><mxGeometry x="360" y="360" width="120" height="40" as="geometry"/></mxCell><mxCell id="3N9pXRzrCpbUJ6rccx5e-213" style="edgeStyle=orthogonalEdgeStyle;rounded=0;orthogonalLoop=1;jettySize=auto;html=1;entryX=0.5;entryY=1;entryDx=0;entryDy=0;fontSize=18;" parent="1" source="3N9pXRzrCpbUJ6rccx5e-211" target="3N9pXRzrCpbUJ6rccx5e-209" edge="1"><mxGeometry relative="1" as="geometry"><Array as="points"><mxPoint x="310" y="560"/><mxPoint x="510" y="560"/><mxPoint x="510" y="310"/><mxPoint x="270" y="310"/></Array></mxGeometry></mxCell><mxCell id="3N9pXRzrCpbUJ6rccx5e-211" value="Book_ID" style="whiteSpace=wrap;html=1;align=center;strokeColor=default;fontSize=18;fillColor=none;fontStyle=5" parent="1" vertex="1"><mxGeometry x="260" y="600" width="100" height="40" as="geometry"/></mxCell><mxCell id="3N9pXRzrCpbUJ6rccx5e-216" style="edgeStyle=orthogonalEdgeStyle;rounded=0;orthogonalLoop=1;jettySize=auto;html=1;entryX=0.5;entryY=1;entryDx=0;entryDy=0;fontSize=18;" parent="1" source="3N9pXRzrCpbUJ6rccx5e-215" target="3N9pXRzrCpbUJ6rccx5e-208" edge="1"><mxGeometry relative="1" as="geometry"/></mxCell><mxCell id="3N9pXRzrCpbUJ6rccx5e-215" value="&lt;b&gt;Organization_ID&lt;/b&gt;" style="whiteSpace=wrap;html=1;align=center;strokeColor=default;fontSize=18;fillColor=none;fontStyle=4" parent="1" vertex="1"><mxGeometry x="420" y="240" width="170" height="40" as="geometry"/></mxCell><mxCell id="3N9pXRzrCpbUJ6rccx5e-217" value="Version" style="whiteSpace=wrap;html=1;align=center;strokeColor=default;fontSize=18;fillColor=none;" parent="1" vertex="1"><mxGeometry x="590" y="240" width="110" height="40" as="geometry"/></mxCell><mxCell id="3N9pXRzrCpbUJ6rccx5e-218" value="Publish_Year" style="whiteSpace=wrap;html=1;align=center;strokeColor=default;fontSize=18;fillColor=none;" parent="1" vertex="1"><mxGeometry x="700" y="240" width="130" height="40" as="geometry"/></mxCell><mxCell id="3N9pXRzrCpbUJ6rccx5e-219" value="&lt;b&gt;&lt;u&gt;Genre_ID&lt;/u&gt;&lt;/b&gt;" style="whiteSpace=wrap;html=1;align=center;strokeColor=default;fontSize=18;fillColor=none;" parent="1" vertex="1"><mxGeometry x="220" y="720" width="110" height="40" as="geometry"/></mxCell><mxCell id="3N9pXRzrCpbUJ6rccx5e-220" value="Genre_Book" style="text;strokeColor=none;fillColor=none;html=1;fontSize=18;fontStyle=1;verticalAlign=middle;align=center;" parent="1" vertex="1"><mxGeometry x="112.5" y="800" width="125" height="40" as="geometry"/></mxCell><mxCell id="3N9pXRzrCpbUJ6rccx5e-225" style="edgeStyle=orthogonalEdgeStyle;rounded=0;orthogonalLoop=1;jettySize=auto;html=1;entryX=0.5;entryY=1;entryDx=0;entryDy=0;fontSize=18;" parent="1" source="3N9pXRzrCpbUJ6rccx5e-222" target="3N9pXRzrCpbUJ6rccx5e-219" edge="1"><mxGeometry relative="1" as="geometry"/></mxCell><mxCell id="3N9pXRzrCpbUJ6rccx5e-222" value="&lt;b&gt;&lt;u&gt;Genre_ID&lt;/u&gt;&lt;/b&gt;" style="whiteSpace=wrap;html=1;align=center;strokeColor=default;fontSize=18;fillColor=none;" parent="1" vertex="1"><mxGeometry x="220" y="840" width="110" height="40" as="geometry"/></mxCell><mxCell id="3N9pXRzrCpbUJ6rccx5e-226" style="edgeStyle=orthogonalEdgeStyle;rounded=0;orthogonalLoop=1;jettySize=auto;html=1;exitX=0;exitY=0.5;exitDx=0;exitDy=0;entryX=0.25;entryY=1;entryDx=0;entryDy=0;fontSize=18;" parent="1" source="3N9pXRzrCpbUJ6rccx5e-223" target="3N9pXRzrCpbUJ6rccx5e-209" edge="1"><mxGeometry relative="1" as="geometry"><Array as="points"><mxPoint x="80" y="860"/><mxPoint x="80" y="310"/><mxPoint x="245" y="310"/></Array></mxGeometry></mxCell><mxCell id="3N9pXRzrCpbUJ6rccx5e-223" value="Book_ID" style="whiteSpace=wrap;html=1;align=center;strokeColor=default;fontSize=18;fillColor=none;fontStyle=5" parent="1" vertex="1"><mxGeometry x="120" y="840" width="100" height="40" as="geometry"/></mxCell><mxCell id="3N9pXRzrCpbUJ6rccx5e-227" value="Return_date" style="whiteSpace=wrap;html=1;align=center;strokeColor=default;fontSize=18;fillColor=none;" parent="1" vertex="1"><mxGeometry x="220" y="960" width="130" height="40" as="geometry"/></mxCell><mxCell id="3N9pXRzrCpbUJ6rccx5e-228" value="Amount" style="whiteSpace=wrap;html=1;align=center;strokeColor=default;fontSize=18;fillColor=none;" parent="1" vertex="1"><mxGeometry x="220" y="1080" width="100" height="40" as="geometry"/></mxCell><mxCell id="3N9pXRzrCpbUJ6rccx5e-229" value="Paid" style="whiteSpace=wrap;html=1;align=center;strokeColor=default;fontSize=18;fillColor=none;" parent="1" vertex="1"><mxGeometry x="320" y="1080" width="100" height="40" as="geometry"/></mxCell><mxCell id="3N9pXRzrCpbUJ6rccx5e-234" style="edgeStyle=orthogonalEdgeStyle;rounded=0;orthogonalLoop=1;jettySize=auto;html=1;entryX=0.5;entryY=1;entryDx=0;entryDy=0;fontSize=18;" parent="1" source="3N9pXRzrCpbUJ6rccx5e-230" target="3N9pXRzrCpbUJ6rccx5e-209" edge="1"><mxGeometry relative="1" as="geometry"><Array as="points"><mxPoint x="400" y="920"/><mxPoint x="510" y="920"/><mxPoint x="510" y="310"/><mxPoint x="270" y="310"/></Array></mxGeometry></mxCell><mxCell id="3N9pXRzrCpbUJ6rccx5e-230" value="Book_ID" style="whiteSpace=wrap;html=1;align=center;strokeColor=default;fontSize=18;fillColor=none;fontStyle=5" parent="1" vertex="1"><mxGeometry x="350" y="960" width="100" height="40" as="geometry"/></mxCell><mxCell id="3N9pXRzrCpbUJ6rccx5e-235" value="Loan_date" style="whiteSpace=wrap;html=1;align=center;strokeColor=default;fontSize=18;fillColor=none;" parent="1" vertex="1"><mxGeometry x="450" y="960" width="130" height="40" as="geometry"/></mxCell><mxCell id="3N9pXRzrCpbUJ6rccx5e-236" value="Due_date" style="whiteSpace=wrap;html=1;align=center;strokeColor=default;fontSize=18;fillColor=none;" parent="1" vertex="1"><mxGeometry x="580" y="960" width="130" height="40" as="geometry"/></mxCell><mxCell id="3N9pXRzrCpbUJ6rccx5e-238" style="edgeStyle=orthogonalEdgeStyle;rounded=0;orthogonalLoop=1;jettySize=auto;html=1;entryX=0.5;entryY=1;entryDx=0;entryDy=0;fontSize=18;" parent="1" source="3N9pXRzrCpbUJ6rccx5e-237" target="3N9pXRzrCpbUJ6rccx5e-176" edge="1"><mxGeometry relative="1" as="geometry"><Array as="points"><mxPoint x="470" y="1040"/><mxPoint x="170" y="1040"/></Array></mxGeometry></mxCell><mxCell id="3N9pXRzrCpbUJ6rccx5e-237" value="Loan_ID" style="whiteSpace=wrap;html=1;align=center;strokeColor=default;fontSize=18;fillColor=none;fontStyle=5" parent="1" vertex="1"><mxGeometry x="420" y="1080" width="100" height="40" as="geometry"/></mxCell><mxCell id="3N9pXRzrCpbUJ6rccx5e-246" value="Librarian" style="text;strokeColor=none;fillColor=none;html=1;fontSize=18;fontStyle=1;verticalAlign=middle;align=center;" parent="1" vertex="1"><mxGeometry x="110" y="1280" width="100" height="40" as="geometry"/></mxCell><mxCell id="3N9pXRzrCpbUJ6rccx5e-251" value="Borrower" style="text;strokeColor=none;fillColor=none;html=1;fontSize=18;fontStyle=1;verticalAlign=middle;align=center;" parent="1" vertex="1"><mxGeometry x="110" y="1400" width="100" height="40" as="geometry"/></mxCell><mxCell id="3N9pXRzrCpbUJ6rccx5e-256" value="Librarian_ID" style="whiteSpace=wrap;html=1;align=center;strokeColor=default;fontSize=18;fillColor=none;fontStyle=5" parent="1" vertex="1"><mxGeometry x="120" y="1320" width="120" height="40" as="geometry"/></mxCell><mxCell id="3N9pXRzrCpbUJ6rccx5e-257" value="Borrower_ID" style="whiteSpace=wrap;html=1;align=center;strokeColor=default;fontSize=18;fillColor=none;fontStyle=5" parent="1" vertex="1"><mxGeometry x="220" y="1440" width="120" height="40" as="geometry"/></mxCell><mxCell id="3N9pXRzrCpbUJ6rccx5e-260" style="edgeStyle=orthogonalEdgeStyle;rounded=0;orthogonalLoop=1;jettySize=auto;html=1;entryX=0.5;entryY=1;entryDx=0;entryDy=0;fontSize=18;" parent="1" source="3N9pXRzrCpbUJ6rccx5e-258" target="3N9pXRzrCpbUJ6rccx5e-181" edge="1"><mxGeometry relative="1" as="geometry"><Array as="points"><mxPoint x="300" y="1280"/><mxPoint x="540" y="1280"/></Array></mxGeometry></mxCell><mxCell id="3N9pXRzrCpbUJ6rccx5e-258" value="&lt;b&gt;Person_ID&lt;/b&gt;" style="whiteSpace=wrap;html=1;align=center;strokeColor=default;fontSize=18;fillColor=none;fontStyle=4" parent="1" vertex="1"><mxGeometry x="240" y="1320" width="120" height="40" as="geometry"/></mxCell><mxCell id="3N9pXRzrCpbUJ6rccx5e-261" style="edgeStyle=orthogonalEdgeStyle;rounded=0;orthogonalLoop=1;jettySize=auto;html=1;exitX=0.5;exitY=0;exitDx=0;exitDy=0;entryX=0.5;entryY=1;entryDx=0;entryDy=0;fontSize=18;" parent="1" source="3N9pXRzrCpbUJ6rccx5e-259" target="3N9pXRzrCpbUJ6rccx5e-181" edge="1"><mxGeometry relative="1" as="geometry"><Array as="points"><mxPoint x="400" y="1400"/><mxPoint x="560" y="1400"/><mxPoint x="560" y="1280"/><mxPoint x="540" y="1280"/></Array></mxGeometry></mxCell><mxCell id="3N9pXRzrCpbUJ6rccx5e-259" value="&lt;b&gt;Person_ID&lt;/b&gt;" style="whiteSpace=wrap;html=1;align=center;strokeColor=default;fontSize=18;fillColor=none;fontStyle=4" parent="1" vertex="1"><mxGeometry x="340" y="1440" width="120" height="40" as="geometry"/></mxCell><mxCell id="3N9pXRzrCpbUJ6rccx5e-262" value="Loan_ID" style="whiteSpace=wrap;html=1;align=center;strokeColor=default;fontSize=18;fillColor=none;fontStyle=5" parent="1" vertex="1"><mxGeometry x="120" y="1440" width="100" height="40" as="geometry"/></mxCell><mxCell id="3N9pXRzrCpbUJ6rccx5e-264" value="Book_Borrower" style="text;strokeColor=none;fillColor=none;html=1;fontSize=18;fontStyle=1;verticalAlign=middle;align=center;" parent="1" vertex="1"><mxGeometry x="130" y="1520" width="110" height="40" as="geometry"/></mxCell><mxCell id="3N9pXRzrCpbUJ6rccx5e-270" style="edgeStyle=orthogonalEdgeStyle;rounded=0;orthogonalLoop=1;jettySize=auto;html=1;fontSize=18;" parent="1" source="3N9pXRzrCpbUJ6rccx5e-267" edge="1"><mxGeometry relative="1" as="geometry"><mxPoint x="245" y="280" as="targetPoint"/><Array as="points"><mxPoint x="80" y="1580"/><mxPoint x="80" y="310"/><mxPoint x="245" y="310"/></Array></mxGeometry></mxCell><mxCell id="3N9pXRzrCpbUJ6rccx5e-267" value="Book_ID" style="whiteSpace=wrap;html=1;align=center;strokeColor=default;fontSize=18;fillColor=none;fontStyle=5" parent="1" vertex="1"><mxGeometry x="120" y="1560" width="100" height="40" as="geometry"/></mxCell><mxCell id="3N9pXRzrCpbUJ6rccx5e-269" style="edgeStyle=orthogonalEdgeStyle;rounded=0;orthogonalLoop=1;jettySize=auto;html=1;entryX=0.5;entryY=1;entryDx=0;entryDy=0;fontSize=18;" parent="1" source="3N9pXRzrCpbUJ6rccx5e-268" target="3N9pXRzrCpbUJ6rccx5e-257" edge="1"><mxGeometry relative="1" as="geometry"/></mxCell><mxCell id="3N9pXRzrCpbUJ6rccx5e-268" value="Borrower_ID" style="whiteSpace=wrap;html=1;align=center;strokeColor=default;fontSize=18;fillColor=none;fontStyle=5" parent="1" vertex="1"><mxGeometry x="220" y="1560" width="120" height="40" as="geometry"/></mxCell><mxCell id="3N9pXRzrCpbUJ6rccx5e-271" value="Reservation_Borrower" style="text;strokeColor=none;fillColor=none;html=1;fontSize=18;fontStyle=1;verticalAlign=middle;align=center;" parent="1" vertex="1"><mxGeometry x="160" y="1640" width="110" height="40" as="geometry"/></mxCell><mxCell id="3N9pXRzrCpbUJ6rccx5e-275" style="edgeStyle=orthogonalEdgeStyle;rounded=0;orthogonalLoop=1;jettySize=auto;html=1;entryX=0;entryY=0.5;entryDx=0;entryDy=0;fontSize=18;" parent="1" source="3N9pXRzrCpbUJ6rccx5e-272" target="3N9pXRzrCpbUJ6rccx5e-175" edge="1"><mxGeometry relative="1" as="geometry"><Array as="points"><mxPoint x="50" y="1700"/><mxPoint x="50" y="620"/></Array></mxGeometry></mxCell><mxCell id="3N9pXRzrCpbUJ6rccx5e-272" value="Reservation_ID" style="whiteSpace=wrap;html=1;align=center;strokeColor=default;fontSize=18;fillColor=none;fontStyle=5" parent="1" vertex="1"><mxGeometry x="120" y="1680" width="160" height="40" as="geometry"/></mxCell><mxCell id="3N9pXRzrCpbUJ6rccx5e-277" style="edgeStyle=orthogonalEdgeStyle;rounded=0;orthogonalLoop=1;jettySize=auto;html=1;entryX=0.5;entryY=1;entryDx=0;entryDy=0;fontSize=18;exitX=0.5;exitY=0;exitDx=0;exitDy=0;" parent="1" source="3N9pXRzrCpbUJ6rccx5e-273" target="3N9pXRzrCpbUJ6rccx5e-257" edge="1"><mxGeometry relative="1" as="geometry"><Array as="points"><mxPoint x="345" y="1640"/><mxPoint x="380" y="1640"/><mxPoint x="380" y="1520"/><mxPoint x="280" y="1520"/></Array></mxGeometry></mxCell><mxCell id="3N9pXRzrCpbUJ6rccx5e-273" value="Borrower_ID" style="whiteSpace=wrap;html=1;align=center;strokeColor=default;fontSize=18;fillColor=none;fontStyle=5" parent="1" vertex="1"><mxGeometry x="280" y="1680" width="130" height="40" as="geometry"/></mxCell><mxCell id="3N9pXRzrCpbUJ6rccx5e-274" value="Reservation_date" style="whiteSpace=wrap;html=1;align=center;strokeColor=default;fontSize=18;fillColor=none;" parent="1" vertex="1"><mxGeometry x="410" y="1680" width="160" height="40" as="geometry"/></mxCell><mxCell id="3N9pXRzrCpbUJ6rccx5e-279" style="edgeStyle=orthogonalEdgeStyle;rounded=0;orthogonalLoop=1;jettySize=auto;html=1;entryX=0.5;entryY=1;entryDx=0;entryDy=0;fontSize=18;" parent="1" source="3N9pXRzrCpbUJ6rccx5e-278" target="3N9pXRzrCpbUJ6rccx5e-208" edge="1"><mxGeometry relative="1" as="geometry"><Array as="points"><mxPoint x="1120" y="1340"/><mxPoint x="1120" y="1100"/><mxPoint x="880" y="1100"/><mxPoint x="880" y="200"/><mxPoint x="605" y="200"/></Array></mxGeometry></mxCell><mxCell id="3N9pXRzrCpbUJ6rccx5e-278" value="&lt;b&gt;Organization_ID&lt;/b&gt;" style="whiteSpace=wrap;html=1;align=center;strokeColor=default;fontSize=18;fillColor=none;fontStyle=4" parent="1" vertex="1"><mxGeometry x="360" y="1320" width="170" height="40" as="geometry"/></mxCell></root></mxGraphModel></diagram></mxfile>